<svg xmlns="http://www.w3.org/2000/svg" viewBox="0 0 24 18" width="24" height="18" aria-label="BatteryBoost Logo" role="img">
  <path d="M2.51 2.88h2.46v12.24H2.51c-.96 0-1.75-.78-1.75-1.75V4.62c0-.96.78-1.75 1.75-1.75z" fill="#2bb673"/>
  <rect x="5.95" y="2.88" width="4.93" height="12.24" fill="#8dc63f"/>
  <rect x="11.7" y="2.88" width="5.03" height="12.24" fill="#39b54a"/>
  <path d="M22.84 6.55h-1.04v-2.07c0-.88-.71-1.6-1.6-1.6h-2.6v12.24h2.59c.89 0 1.6-.72 1.6-1.6v-2.1h.64c.44 0 .8-.36 .8-.8v-3.68c0-.22-.18-.4-.4-.4z" fill="#009444"/>
  <polygon points="14.87 7.94 14.87 7.94 14.87 7.94 13.87 6.94 13.87 5.19 12.98 5.19 12.98 6.06 11.32 4.39 7.76 7.94 7.76 7.94 7.76 7.94 7.75 7.95 7.76 7.96 7.76 12.72 14.87 12.72 14.87 7.96 14.88 7.95 14.87 7.94" fill="#fff"/>
</svg>
